<svg xmlns="http://www.w3.org/2000/svg" width="920" height="420" viewBox="0 0 920 420" font-family="Inter, -apple-system, 'Segoe UI', Helvetica, Arial, sans-serif">
  <title>Inkweld architecture</title>
  <defs>
    <marker id="arr" viewBox="0 0 10 10" refX="9" refY="5" markerWidth="8" markerHeight="8" orient="auto-start-reverse">
      <path d="M 0 0 L 10 5 L 0 10 z" fill="#dc2626"/>
    </marker>
  </defs>
  <g>
    <rect x="30" y="30" width="350" height="360" rx="18" fill="#ffffff" stroke="#d4d4d8" stroke-width="1.5"/>
    <rect x="30" y="30" width="350" height="6" rx="3" fill="#dc2626"/>
    <text x="54" y="72" font-size="12" font-weight="700" letter-spacing="2" fill="#dc2626">YOUR BROWSER</text>
    <text x="54" y="98" font-size="20" font-weight="700" fill="#18181b">Angular PWA</text>
  <g>
    <rect x="54" y="122" width="302" height="52" rx="10" fill="#f4f4f5" stroke="#e4e4e7"/>
    <text x="70" y="144" font-size="14" font-weight="600" fill="#18181b">Rich text editor</text>
    <text x="70" y="162" font-size="12" fill="#71717a">ProseMirror · Zen mode · comments</text>
  </g>
  <g>
    <rect x="54" y="184" width="302" height="52" rx="10" fill="#f4f4f5" stroke="#e4e4e7"/>
    <text x="70" y="206" font-size="14" font-weight="600" fill="#18181b">Worldbuilding &amp; canvas</text>
    <text x="70" y="224" font-size="12" fill="#71717a">Elements, maps, timelines, charts</text>
  </g>
  <g>
    <rect x="54" y="246" width="302" height="52" rx="10" fill="#f4f4f5" stroke="#e4e4e7"/>
    <text x="70" y="268" font-size="14" font-weight="600" fill="#18181b">Local-first storage</text>
    <text x="70" y="286" font-size="12" fill="#71717a">IndexedDB · works fully offline</text>
  </g>
  <g>
    <rect x="54" y="308" width="302" height="52" rx="10" fill="#f4f4f5" stroke="#e4e4e7"/>
    <text x="70" y="330" font-size="14" font-weight="600" fill="#18181b">Yjs CRDT documents</text>
    <text x="70" y="348" font-size="12" fill="#71717a">Conflict-free, mergeable edits</text>
  </g>
  </g>
  <g>
    <rect x="540" y="30" width="350" height="360" rx="18" fill="#ffffff" stroke="#d4d4d8" stroke-width="1.5"/>
    <rect x="540" y="30" width="350" height="6" rx="3" fill="#dc2626"/>
    <text x="564" y="72" font-size="12" font-weight="700" letter-spacing="2" fill="#dc2626">SYNC SERVER  ·  OPTIONAL</text>
    <text x="564" y="98" font-size="20" font-weight="700" fill="#18181b">Hono API on Bun</text>
  <g>
    <rect x="564" y="122" width="302" height="52" rx="10" fill="#f4f4f5" stroke="#e4e4e7"/>
    <text x="580" y="144" font-size="14" font-weight="600" fill="#18181b">Accounts &amp; sharing</text>
    <text x="580" y="162" font-size="12" fill="#71717a">Passkeys, roles, invitations</text>
  </g>
  <g>
    <rect x="564" y="184" width="302" height="52" rx="10" fill="#f4f4f5" stroke="#e4e4e7"/>
    <text x="580" y="206" font-size="14" font-weight="600" fill="#18181b">Real-time relay</text>
    <text x="580" y="224" font-size="12" fill="#71717a">WebSocket fan-out of Yjs updates</text>
  </g>
  <g>
    <rect x="564" y="246" width="302" height="52" rx="10" fill="#f4f4f5" stroke="#e4e4e7"/>
    <text x="580" y="268" font-size="14" font-weight="600" fill="#18181b">Storage</text>
    <text x="580" y="286" font-size="12" fill="#71717a">SQLite (Drizzle) · LevelDB docs · media</text>
  </g>
  <g>
    <rect x="564" y="308" width="302" height="52" rx="10" fill="#f4f4f5" stroke="#e4e4e7"/>
    <text x="580" y="330" font-size="14" font-weight="600" fill="#18181b">Publishing &amp; MCP</text>
    <text x="580" y="348" font-size="12" fill="#71717a">EPUB / PDF / HTML · AI-assistant API</text>
  </g>
  </g>
  <g>
    <line x1="386" y1="178" x2="534" y2="178" stroke="#dc2626" stroke-width="2" marker-start="url(#arr)" marker-end="url(#arr)"/>
    <text x="460.0" y="168" text-anchor="middle" font-size="12" font-weight="600" fill="#18181b">REST</text>
    <line x1="386" y1="230" x2="534" y2="230" stroke="#dc2626" stroke-width="2" stroke-dasharray="6 5" marker-start="url(#arr)" marker-end="url(#arr)"/>
    <text x="460.0" y="252" text-anchor="middle" font-size="12" font-weight="600" fill="#18181b">WebSocket</text>
    <text x="460.0" y="268" text-anchor="middle" font-size="11" fill="#71717a">live document sync</text>
    <rect x="398.0" y="296" width="124" height="24" rx="12" fill="#fee2e2"/>
    <text x="460.0" y="312" text-anchor="middle" font-size="11" font-weight="600" fill="#dc2626">offline without it</text>
  </g>
  <text x="460.0" y="412" text-anchor="middle" font-size="12" fill="#71717a">Runs as a Docker image, a native Bun binary, or a Cloudflare Worker · client ships as PWA, Android TWA, or Electron desktop app</text>
</svg>
