<?xml version="1.0" encoding="UTF-8" standalone="no"?>
<svg
   xmlns:dc="http://purl.org/dc/elements/1.1/"
   xmlns:cc="http://creativecommons.org/ns#"
   xmlns:rdf="http://www.w3.org/1999/02/22-rdf-syntax-ns#"
   xmlns:svg="http://www.w3.org/2000/svg"
   xmlns="http://www.w3.org/2000/svg"
   xmlns:sodipodi="http://sodipodi.sourceforge.net/DTD/sodipodi-0.dtd"
   xmlns:inkscape="http://www.inkscape.org/namespaces/inkscape"
   sodipodi:docname="worm.svg"
   inkscape:version="1.0 (4035a4fb49, 2020-05-01)"
   id="svg8"
   version="1.1"
   viewBox="0 0 210 297"
   height="297mm"
   width="210mm">
  <defs
     id="defs2" />
  <sodipodi:namedview
     inkscape:window-maximized="1"
     inkscape:window-y="-6"
     inkscape:window-x="-6"
     inkscape:window-height="1010"
     inkscape:window-width="1920"
     showgrid="false"
     inkscape:document-rotation="0"
     inkscape:current-layer="layer1"
     inkscape:document-units="mm"
     inkscape:cy="-302.92101"
     inkscape:cx="-550.52644"
     inkscape:zoom="0.24748737"
     inkscape:pageshadow="2"
     inkscape:pageopacity="0.0"
     borderopacity="1.0"
     bordercolor="#666666"
     pagecolor="#ffffff"
     id="base" />
  <metadata
     id="metadata5">
    <rdf:RDF>
      <cc:Work
         rdf:about="">
        <dc:format>image/svg+xml</dc:format>
        <dc:type
           rdf:resource="http://purl.org/dc/dcmitype/StillImage" />
        <dc:title></dc:title>
      </cc:Work>
    </rdf:RDF>
  </metadata>
  <g
     id="layer1"
     inkscape:groupmode="layer"
     inkscape:label="Layer 1">
    <g
       transform="translate(314.30896,145.39462)"
       inkscape:label="worm"
       style="display:inline"
       id="g889">
      <path
         inkscape:label="lightblue"
         sodipodi:nodetypes="sssssscssscssssssssssssscssscccccccscccscccccssss"
         id="path899"
         d="m -236.76344,31.891739 c -0.76119,-0.918938 -1.0837,-1.389062 -0.9529,-1.389062 0.0733,0 0.45113,0.416718 0.83961,0.926041 0.72091,0.945169 0.80821,1.301957 0.11329,0.463021 z m 12.53042,-9.103894 c 0.0562,-0.168571 2.17948,-1.269899 4.71841,-2.447396 l 4.61623,-2.140897 15.86668,-0.07227 c 8.72667,-0.03975 15.99763,-0.02201 16.15769,0.03941 0.20479,0.07859 0.16046,0.76632 -0.14962,2.321223 l -0.44062,2.209552 -10.16082,0.160798 c -18.63698,0.294933 -30.72046,0.267133 -30.60795,-0.07042 z M -209.739,10.354519 c 0,-0.5072748 1.06692,-3.7127203 1.36135,-4.0900082 0.34565,-0.442931 21.43794,-0.7481411 22.84802,-0.3306127 0.67682,0.200406 2.60378,0.2872396 5.3454,0.240874 4.28707,-0.072499 4.28707,-0.072499 4.46174,0.6234641 0.27115,1.0803334 -0.35613,2.2167188 -1.63843,2.9681963 -1.42532,0.8352945 -32.37808,1.3974925 -32.37808,0.5880865 z m -74.10536,-28.813369 c -0.4855,-0.300054 -0.11075,-2.015305 0.69402,-3.17659 1.73382,-2.501895 6.78808,-4.351856 6.14247,-2.248268 -0.72272,2.354836 2.11444,3.599235 3.91683,1.717947 l 0.73511,-0.767291 0.48683,1.087366 c 0.69429,1.550738 0.90823,3.096262 0.44915,3.244717 -0.66032,0.213535 -12.09718,0.344358 -12.42441,0.142119 z m 41.83642,-5.032371 2.41022,-2.957664 2.8827,-3.241146 13.40683,-1.851618 c 0.16856,0.505687 -6.2154,8.372745 -7.3054,8.578308 z m 41.69464,-26.487089 c 6.53029,-6.429128 17.55387,-17.353112 24.49684,-24.275519 l 14.15061,-14.105602 3.12608,1.359082 1.17254,3.180145 c 1.22043,1.013053 -10.3018,12.381386 -22.79048,24.200669 l -24.72755,23.402137 -3.95141,-1.62835 -3.91686,0.123817 12.44023,-12.256287 z m 61.27045,-1.453618 c -1.84538,-0.908732 -2.21386,-3.269358 -0.74032,-4.742891 2.84257,-2.842577 7.10285,1.072928 4.32593,3.975854 -1.0565,1.104447 -2.34198,1.379439 -3.58561,0.767037 z"
         style="display:inline;fill:#11cfe7;stroke-width:0.264583" />
      <path
         inkscape:label="orange"
         sodipodi:nodetypes="sssscssscssssssscsssssssssssssscsssssssssssscccsssssscsssssscsssssccccssssssssssscssssssssssssssssssssssssssssssscsssssscssssccsssssssccccscscccccccssssssssssssccccc"
         id="path897"
         d="m -254.189,26.269343 c 0,-0.14552 0.11977,-0.264583 0.26615,-0.264583 0.54383,0 8.7391,-11.598118 10.65646,-15.081249 1.25224,-2.2748531 1.9293,-3.9826141 3.09445,-7.8052081 l 0.96776,-3.17499979 3.50738,-2.39874681 c 3.98771,-2.7272508 5.01949,-3.6421825 14.23493,-12.6228173 9.99865,-9.7439 10.3974,-9.957403 18.99891,-10.172594 l 5.29166,-0.132384 -0.0791,2.741395 c -0.0435,1.50777 -0.12908,2.890226 -0.19014,3.072127 -0.0828,0.246571 -1.21178,0.330729 -4.43691,0.330729 -7.15438,0 -6.92315,-0.135704 -17.34126,10.1775418 -4.26796,4.2250093 -7.80263,7.7239967 -7.85481,7.7755322 -0.0522,0.051536 -0.75917,-0.2313119 -1.57109,-0.6285467 -5.74647,-2.8114809 -10.50273,4.3001324 -5.84789,8.7438119 l 1.39299,1.3297985 -2.54109,2.1472863 c -1.3976,1.181008 -4.68422,3.926319 -7.30359,6.100697 -2.61937,2.174374 -6.15451,5.342421 -7.85585,7.040101 -3.07326,3.066651 -3.38894,3.329533 -3.38894,2.822109 z m 77.01531,-3.545895 c -1.09204,-1.315823 0.39965,-4.70259 2.20147,-4.998267 1.82377,-0.299281 2.0103,-0.169132 2.0103,1.402649 0,0.834696 0.20695,1.747422 0.54762,2.415193 0.6741,1.32134 0.84177,1.20261 -2.01196,1.424659 -2.03502,0.158345 -2.44346,0.122037 -2.74743,-0.244234 z m 9.94336,-3.134833 c -0.6899,-2.801382 -0.52091,-4.591077 0.51407,-5.444188 1.30755,-1.077796 1.09577,-1.17324 2.85788,1.287959 l 1.52329,2.127626 -0.72275,0.584353 c -2.58227,2.087825 -3.90154,2.544469 -4.17249,1.44425 z m 8.08145,-8.111159 c -2.84532,-2.9319115 -2.51412,-5.6693778 0.56923,-4.7049081 0.74824,0.2340477 1.86909,0.5054943 2.49078,0.6032129 1.51375,0.2379398 1.55038,0.3818943 0.56671,2.2274317 -1.65336,3.1020385 -2.17406,3.3711275 -3.62672,1.8742635 z m 2.59112,-10.52116655 c -1.69229,-0.27011046 -2.85196,-0.89760685 -2.98961,-1.61769152 -0.18659,-0.97608223 -0.15672,-0.99982593 1.72302,-1.36964203 3.12781,-0.6153573 4.06354,-1.5193141 3.85197,-3.7211792 -0.24419,-2.5413466 -1.45771,-3.1088487 -4.79849,-2.2440105 l -2.3102,0.5980483 -0.64779,-0.9533175 -0.6478,-0.9533176 1.5485,-1.5936464 c 2.60981,-2.685899 2.95277,-3.620971 1.84473,-5.02961 -0.88804,-1.128966 -2.08165,-1.525047 -3.47374,-1.152718 -1.13213,0.3028 -1.17628,0.289269 -2.80344,-0.859128 -1.49312,-1.053804 -1.83606,-1.179581 -3.54201,-1.299065 -2.24219,-0.15704 -2.23974,-0.152921 -2.2814,-3.836458 l -0.0269,-2.38125 3.39271,0.132292 c 3.39271,0.132292 3.39271,0.132292 4.83149,1.124479 3.55644,2.452526 6.56501,-0.856332 3.33212,-3.664691 -2.15791,-1.874543 1.6332,-0.08657 4.84896,2.286876 5.95944,4.398476 7.14838,12.058435 3.09812,19.9602849 -0.70648,1.3782965 -0.83125,1.9383083 -0.92951,4.1716958 l -0.11349,2.5796873 -1.62288,-0.036031 c -0.89258,-0.019817 -1.92052,-0.083542 -2.28433,-0.14160765 z M -190.81662,-19.569717 c -0.061,-0.181901 -0.14661,-1.547553 -0.19013,-3.034784 l -0.0791,-2.704057 6.95828,-0.07407 6.95828,-0.07407 -0.1024,2.800189 c -0.0563,1.540102 -0.18824,2.939087 -0.29317,3.108854 -0.28334,0.458457 -13.09761,0.437123 -13.25173,-0.02207 z m -43.44392,-25.536225 c -0.60106,-1.047292 -1.64114,-1.649711 -2.84823,-1.649711 -0.5618,0 -1.27416,-0.230732 -1.71217,-0.554569 -0.71355,-0.527548 -2.60193,-1.024287 -5.39545,-1.419267 -1.74077,-0.246129 -1.77034,-0.641549 -0.19271,-2.576566 0.74765,-0.917019 1.42825,-1.997204 1.51245,-2.400416 0.16912,-0.80994 0.6139,-1.25299 0.6139,-0.611521 0,1.209786 0.69105,1.28483 12.1149,1.315609 10.0258,0.02701 10.83567,-0.0051 11.6976,-0.463151 1.41683,-0.753022 2.88782,-2.293336 3.05839,-3.202527 0.14547,-0.775438 0.20477,-0.809122 1.25911,-0.715242 1.80176,0.160427 1.70527,0.325617 -2.51908,4.312573 -9.03828,8.530378 -8.54832,8.240365 -14.55429,8.614817 -2.56942,0.160194 -2.56942,0.160194 -3.03442,-0.650029 z M -259.4331,-55.35301 c -2.83618,-1.621438 -3.32425,-2.405533 -1.29208,-2.075759 0.7205,0.116922 1.1952,0.422642 1.73523,1.117555 1.43873,1.851345 1.37189,1.99586 -0.44315,0.958204 z m 17.59324,-0.681241 c 0.29993,-0.499322 0.75737,-1.711532 1.01653,-2.693797 0.52627,-1.994657 0.60975,-2.048031 1.79938,-1.150493 1.31896,0.995116 4.0039,2.010389 5.31657,2.010389 0.65064,0 1.25657,0.119062 1.3465,0.264583 0.10002,0.16183 -0.33063,0.269243 -1.10886,0.276579 -1.14975,0.01085 -7.13674,1.417778 -8.40121,1.974276 -0.49744,0.218927 -0.49643,0.19666 0.0311,-0.681537 z m -9.90257,-1.604203 c -2.69695,-1.471626 -2.71538,-1.519698 -0.91922,-2.396943 0.68922,-0.336618 2.30045,-1.650928 3.58879,-2.92744 1.2859,-1.274108 2.45907,-2.241743 2.60702,-2.1503 0.67122,0.414835 -0.38791,5.724866 -1.53742,7.708005 -0.80572,1.390026 -0.7588,1.392955 -3.73917,-0.233322 z m -20.96482,-6.754704 c -0.27729,-0.729337 -1.15201,-4.087649 -1.3901,-5.137243 -0.28727,-1.266364 0.10989,-2.275622 2.84745,-2.275622 2.76521,0 3.15196,0.782915 3.42677,2.560788 0.10123,0.654844 0.41803,1.996464 0.70402,2.981378 0.67019,2.308119 0.6679,2.310288 -2.43789,2.310288 -2.50342,0 -2.93187,0.134775 -3.15025,-0.439589 z m -0.68992,-16.22916 c 0.47735,-2.868887 0.5813,-3.175 1.07811,-3.175 1.7938,0 3.18692,-2.898341 2.12313,-4.417115 -0.21809,-0.311359 -0.29461,-0.605742 -0.17005,-0.654185 0.12457,-0.04844 0.79699,-1.100106 1.49428,-2.337033 4.89426,-8.681963 14.24874,-15.790279 24.38151,-18.527119 1.83827,-0.49652 3.02652,-0.57655 10.40952,-0.7011 l 9.39744,0.0247 -2.52258,1.19097 c -6.49912,3.06836 -4.19153,11.67639 0.22174,15.205322 1.29601,1.036311 -0.25839,1.219677 -3.60842,1.219677 -6.84538,0 -9.5543,-1.425064 -11.40804,-6.001347 -1.92404,-4.749862 -6.36608,-3.383672 -6.36723,1.958297 l -5.3e-4,1.910072 -1.44358,0.706856 c -4.78463,2.342806 -11.35829,10.491975 -12.44137,15.423204 -0.24934,1.135245 -2.14016,1.030126 -3.29992,-0.183454 -0.76232,-0.797689 -0.76232,-0.797689 -0.92189,-0.161909 -0.0878,0.349679 -0.31744,0.635781 -0.51039,0.635781 -0.19296,0 -0.56633,0.238125 -0.82972,0.529166 -0.42174,0.466019 -0.41413,1.121597 -2.89375,1.097115 l -3.3837,-0.03341 0.69532,-3.709539 z m 32.72056,0.759915 c -0.0285,-0.659596 0.74485,-2.347415 1.07564,-2.347415 0.21282,0 0.21169,0.09849 -0.004,0.358534 -0.16366,0.197192 -0.4675,0.82227 -0.67521,1.389063 -0.20771,0.56679 -0.38605,0.83671 -0.3963,0.599818 z m 82.99121,-12.543246 c 2.04084,-2.025854 4.4354,-4.237083 6.53948,-6.196438 1.65159,0.997964 2.85873,2.426274 4.15229,3.825832 l -6.4615,7.289356 c -0.97761,-2.094549 -2.56618,-3.39557 -4.23027,-4.91875 z m -69.73344,-0.927377 c 0.006,-0.08045 6.93865,-0.435492 7.71914,-0.875973 6.08226,-3.432614 5.25552,-11.545011 -0.99116,-15.361461 -0.92604,-0.56577 -0.0284,-0.70751 0.7654,-0.54057 5.52882,1.16286 9.65172,3.59165 12.41596,7.3142 0.68177,0.91812 1.41153,1.87902 1.6217,2.13535 0.21017,0.25633 0.38213,0.58375 0.38213,0.727604 0,0.4568 -0.45052,0.282622 -0.86326,-0.333754 -0.39259,-0.58629 -0.33403,-0.55641 -0.71788,0.595313 -0.54343,1.63056 -0.86762,3.986482 -1.97344,4.993239 -1.04236,0.948993 -2.34904,1.189656 -3.08212,1.812906 -1.57132,1.335904 -15.35635,0.623227 -15.27647,-0.466854 z m 81.36065,-10.972614 8.49402,-6.59718 3.98761,2.91288 -8.83701,8.180616 z"
         style="display:inline;fill:#fa541d;stroke-width:0.264583" />
      <path
         inkscape:label="darkorange"
         sodipodi:nodetypes="ssscsssssssscssscsssssssscsssssssscsssscscsssssscscsscccsssscssccssssssssssssssscssscscsssssscsssssscssssscsssssssssscsscsscssssscccssssssscscssscsssssssssssssssssssssscssssssssssssssssssssssssscsssscssscsssssssssssssssssssssscccssscssssscsssssssccsssscccccssccscscccccccccsssss"
         id="path895"
         d="m -180.92983,33.312652 c -2.92018,-1.043556 -5.80711,-4.704159 -6.19762,-7.858514 -0.19918,-1.608875 0.0822,-1.905642 1.93356,-2.039561 l 1.56842,-0.113448 0.32833,1.682543 c 0.44903,2.301116 1.95577,5.074195 3.78315,6.962735 0.83874,0.866815 1.52499,1.610955 1.52499,1.653646 0,0.216493 -2.10699,0.01058 -2.94083,-0.287401 z m 9.38477,-3.86116 c -1.6596,-0.355089 -3.68522,-1.481952 -4.43797,-2.468856 -1.18118,-1.548606 -2.07657,-4.980005 -1.08467,-4.15681 0.59972,0.497726 5.2544,0.0917 5.05017,-0.440526 -0.0984,-0.256471 0.085,-0.202316 0.54784,0.161727 2.14139,1.684419 4.19148,-0.141515 3.95967,-3.526724 -0.12151,-1.774381 -0.0728,-1.71614 0.25384,0.303728 0.2284,1.412248 1.40131,1.081093 4.2096,-1.188521 l 0.734,-0.593209 -0.74944,-0.994291 c -0.52609,-0.697971 -0.14487,-0.43307 1.27915,0.888854 2.29903,2.134203 5.45168,3.920659 7.72447,4.377103 1.73055,0.347543 1.81515,0.65197 0.47721,1.717111 -5.68344,4.524587 -13.08566,6.964159 -17.96387,5.920414 z m -79.40067,-5.869111 c 1.78146,-1.768872 5.38215,-4.99645 8.00152,-7.172396 2.61937,-2.175944 5.91522,-4.925639 7.32409,-6.11043 l 2.56159,-2.154169 -1.20841,-1.0434478 c -1.41209,-1.2193137 -2.19439,-2.7606571 -2.15616,-4.2482186 0.0265,-1.0294937 0.0325,-1.0220033 0.22306,0.2748121 0.25183,1.714066 0.84411,2.8414318 1.92066,3.6558721 5.03264,3.8073432 11.04834,-2.8379418 6.8652,-7.58369876 -0.53787,-0.61021644 -0.77359,-0.94940164 -0.52382,-0.75374234 0.66896,0.524039 0.40839,0.74664621 8.3357,-7.1213315 10.92439,-10.8426432 10.14482,-10.3659092 17.27163,-10.5621372 l 4.89479,-0.134773 0.14665,-2.778125 c 0.11906,-2.255483 0.15639,-1.780127 0.19843,2.526771 0.0374,3.83365 -0.0363,5.392948 -0.2657,5.622395 -0.22879,0.228785 -2.04098,0.3175 -6.48563,0.3175 h -6.16813 l -0.67348,1.521354 c -0.37041,0.836745 -1.27067,3.1882292 -2.00059,5.2255208 -6.63862,18.5293782 -5.91262,17.0092622 -8.76875,18.3602252 -1.1971,0.566235 -3.72436,1.769192 -5.61613,2.673241 -1.89177,0.904047 -4.27302,2.034149 -5.29167,2.511332 -1.01864,0.477187 -4.65005,2.204869 -8.06979,3.839292 -7.09178,3.389437 -13.44671,6.350283 -13.62976,6.350283 -0.0684,0 1.33324,-1.447257 3.1147,-3.216129 z m 83.05729,-7.631787 c -0.0461,-1.11406 0.0522,-1.270241 1.40881,-2.238764 l 1.05833,-0.755581 -1.11686,1.034153 c -0.81909,0.758431 -1.14287,1.281046 -1.21443,1.960192 l -0.0976,0.926042 z m 14.09998,0.621188 -2.35552,-0.283872 c -3.99137,-0.481014 -5.47334,-6.4760853 -5.07322,-8.6089096 0.3288,-1.7526536 0.57309,-1.8631878 2.67507,-1.2104105 1.62189,0.5036846 2.69062,0.5943018 8.59896,0.729107 l 7.15383,0.021647 1.48497,0.3874803 c 1.05142,0.2743525 -4.52075,10.3254708 -5.9374,10.0834408 l -6.54671,-1.118483 z m -3.19183,-4.719546 c 0.79707,-0.860052 2.34636,-3.7735878 2.16375,-4.0690586 -0.0781,-0.1263597 -0.65064,-0.3096974 -1.27233,-0.4074186 -0.62169,-0.097719 -1.74254,-0.3691652 -2.49078,-0.6032129 -3.08335,-0.9644697 -3.41455,1.7729966 -0.56923,4.7049081 1.17915,1.215025 1.36079,1.246415 2.16859,0.374782 z m -79.19616,-10.40072 c -0.0232,-0.3824737 0.71106,-1.90508988 0.91875,-1.90508988 0.0728,0 -0.033,0.32742186 -0.23508,0.72760414 -0.20205,0.40018227 -0.43384,0.90619784 -0.51507,1.12447914 -0.0992,0.2665968 -0.15457,0.2839958 -0.1686,0.053007 z m 80.40334,-0.060396 c -1.68301,-0.1970538 -3.90984,-0.92436421 -3.64402,-1.19018049 0.0728,-0.0727604 0.58467,0.0567214 1.13757,0.28773701 0.5529,0.23101828 2.04494,0.48738893 3.31565,0.56971408 l 2.31038,0.1496827 0.11498,-2.6167608 c 0.0999,-2.2738423 0.22192,-2.82539 0.931,-4.2087692 4.28657,-8.3628783 2.76932,-16.0759663 -4.05945,-20.6366683 -2.06812,-1.381226 -2.38211,-1.708605 -0.75846,-0.790816 9.26192,5.235464 14.78124,15.297948 14.36781,26.19449254 l -0.0803,2.11666656 -1.19063,0.1788266 c -1.58764,0.2384557 -10.26863,0.2008399 -12.44452,-0.053925 z m -4.05001,-2.16165371 c -0.22463,-0.85901469 0.18137,-1.16754269 2.00979,-1.52726219 2.81846,-0.5544979 3.47163,-1.1602588 3.71727,-3.447444 0.0868,-0.8080136 0.10485,-0.7733638 0.14179,0.2718567 0.0713,2.0165403 -0.69839,2.7124447 -3.79411,3.4304709 -1.7643,0.4092125 -1.84848,0.4633331 -1.77592,1.14174851 0.0919,0.85899092 -0.0878,0.93753248 -0.29882,0.13063008 z m -45.94713,-0.86374019 c 0,-0.5018431 1.04931,-3.3492782 1.3951,-3.7857851 0.21164,-0.2671525 3.81612,-0.3215402 17.53518,-0.2645834 l 17.26878,0.071694 0.97878,0.7937499 c 1.18944,0.9645888 2.13596,2.5205134 1.90285,3.1279834 -0.2438,0.6353413 -39.08069,0.69192774 -39.08069,0.056941 z m -25.85938,-0.8612425 c 0.40218,-0.060817 0.99749,-0.05919 1.32291,0.0036 0.32542,0.062801 -0.004,0.1125591 -0.73124,0.1105747 -0.7276,-0.00212 -0.99386,-0.053372 -0.59167,-0.1141862 z M -154.60675,-7.192 c -0.37294,-0.9718595 -1.61099,-1.186262 -3.62586,-0.6279171 -1.01386,0.2809558 -2.03405,0.4729956 -2.26708,0.4267518 -0.23303,-0.046244 0.58816,-0.3327162 1.82487,-0.6366034 1.62105,-0.3983328 2.44455,-0.4842007 2.95087,-0.3076945 0.79517,0.2771986 1.71864,1.1863043 1.46385,1.4410901 -0.0927,0.092697 -0.24869,-0.040336 -0.34665,-0.2956269 z m -7.52144,-1.0897261 -0.5865,-0.9489889 1.5955,-1.630699 c 2.54969,-2.60595 2.93145,-3.748735 1.75327,-5.24842 l -0.69149,-0.880197 0.82379,0.864071 c 1.42473,1.494403 1.1465,2.40653 -1.59454,5.227491 l -1.5485,1.5936468 0.67003,0.9860412 c 0.36852,0.5423217 0.55639,0.9860412 0.41749,0.9860412 -0.1389,0 -0.51647,-0.4270454 -0.83905,-0.9489863 z m -5.80665,-4.9127039 c -0.3638,-0.149545 -1.19724,-0.351661 -1.85208,-0.449146 l -1.19063,-0.17725 -0.0441,-3.436686 c -0.0242,-1.890178 0.0401,-3.13903 0.14305,-2.775228 0.17216,0.608539 0.33825,0.672042 2.07596,0.79375 1.6932,0.118592 2.05384,0.248754 3.48204,1.256771 0.87627,0.618464 1.79491,1.124479 2.04143,1.124479 0.28467,0 -0.27581,0.724019 -1.53617,1.984375 -2.10397,2.103972 -2.09598,2.09967 -3.11952,1.678935 z m -22.96141,-0.801386 c -0.23505,-0.235053 -0.30795,-1.753462 -0.27013,-5.626819 0.0421,-4.306898 0.0794,-4.782254 0.19844,-2.526771 l 0.14664,2.778125 6.55525,0.07078 c 6.55525,0.07078 6.55525,0.07078 6.80086,-0.529167 0.16646,-0.40659 0.22822,0.465971 0.19163,2.707341 l -0.054,3.307291 -6.62338,0.07057 c -4.92954,0.05252 -6.70572,-0.01175 -6.94532,-0.251354 z m -48.50765,-22.689356 c -0.89456,-0.194471 1.21462,-1.421815 2.43435,-3.308983 1.8328,-2.835693 1.834,-3.578871 0.24294,-4.830403 -1.67934,-1.320969 -1.59867,-0.536228 -2.93303,2.272361 -3.37234,7.098183 -13.97817,7.671867 -23.50875,1.558251 -1.14053,-0.731618 -3.13191,-2.177694 -3.28282,-2.446619 -0.2062,-0.367463 1.59793,-1.544283 3.32178,-1.546732 7.31458,-0.01039 15.03837,-1.851363 19.16775,-7.41986 0.63237,-0.852752 1.14976,-1.444792 1.14976,-1.315644 0,0.308994 -0.64931,1.253811 -1.92628,2.802964 -1.25629,1.524053 -1.154,1.953401 0.52181,2.190346 2.79352,0.39498 4.6819,0.891719 5.39545,1.419267 0.43801,0.323837 1.15037,0.554569 1.71217,0.554569 1.20709,0 2.24717,0.602419 2.84823,1.649711 0.465,0.810223 0.465,0.810223 3.03442,0.650029 4.75807,-0.296651 6.04682,-0.74127 8.43197,-2.909044 5.28786,-4.805928 10.12865,-9.521409 9.99554,-9.736785 -0.0806,-0.130484 -0.0205,-0.237244 0.13357,-0.237244 0.66369,0 -0.22282,0.933527 -9.75714,10.274517 l -9.82161,9.833818 -2.75617,1.229888 c -0.77283,0.344859 -0.93483,0.06975 -1.33034,-0.01623 z m -26.69135,-13.399645 c -3.38687,-0.893543 -6.06369,-2.705359 -8.11618,-5.493461 -1.72801,-2.347331 -1.89854,-2.289876 6.79669,-2.289876 11.30161,0 14.76551,-1.201452 19.55002,-6.780922 1.80564,-2.105652 1.98818,-1.984372 1.80099,1.196621 -0.56731,9.640871 -10.08443,15.991934 -20.03152,13.367638 z m 8.04101,-4.939067 c -0.82568,-1.42001 -1.75431,-2.256139 -2.67094,-2.404887 -2.03217,-0.329774 -1.5441,0.454321 1.29208,2.075759 1.27406,0.728374 1.66531,0.821764 1.37886,0.329128 z m 10.05098,-2.38125 c 1.14951,-1.983139 2.20864,-7.29317 1.53742,-7.708005 -0.14795,-0.09144 -1.32112,0.876192 -2.60702,2.1503 -1.28834,1.276512 -2.89957,2.590822 -3.58879,2.92744 -1.79616,0.877245 -1.77773,0.925317 0.91922,2.396943 2.98037,1.626277 2.93345,1.623348 3.73917,0.233322 z m 11.40905,-1.161618 c -0.87313,-0.372277 -1.96651,-0.9627 -2.42974,-1.31205 -1.00219,-0.755812 -1.32659,-0.793322 -1.48892,-0.172165 -0.1134,0.433941 -0.12292,0.433419 -0.15169,-0.0083 -0.0464,-0.712758 0.65519,-0.831358 1.48127,-0.250393 1.02612,0.721648 2.35868,1.384135 3.912,1.944862 0.7276,0.262657 1.08479,0.476961 0.79375,0.476236 -0.29105,-7.93e-4 -1.24355,-0.305911 -2.11667,-0.678188 z m -40.67719,-4.81827 c -0.68705,0.06649 -2.04501,-5.15437 -1.34578,-6.588532 l -0.15443,-1.605686 3.06525,-0.147921 c 2.06168,-0.09949 2.24492,0.657152 1.95847,1.002302 -0.33155,0.399492 0.15058,2.806184 1.11797,5.580665 l 0.36901,1.058334 2.59649,0.07624 c 3.17802,0.09332 3.21744,0.05894 2.55345,-2.226913 -0.29046,-0.999945 -0.61092,-2.35386 -0.71215,-3.008704 -0.10122,-0.654844 -0.30421,-1.339452 -0.4511,-1.521354 -0.0778,-0.09631 -1.24421,-0.658122 -0.57292,-0.852592 1.16431,-0.337291 5.05789,-0.328583 9.61757,-0.328583 6.31254,0 10.58966,-0.379355 10.85236,0.351397 0.15763,0.438482 -1.8425,2.408662 -2.44464,3.206196 -1.70557,2.259 -4.80861,3.851359 -7.38314,4.668461 -1.9591,0.621779 -16.68409,0.106144 -17.60174,0.194949 z m 5.55375,-13.991445 c 0.61847,-0.0557 1.6305,-0.0557 2.24896,0 0.61847,0.0557 0.11245,0.101282 -1.12448,0.101282 -1.23692,0 -1.74294,-0.04558 -1.12448,-0.101282 z m 0.65126,0.824107 c -4.56108,0.104251 2.78791,-0.912037 3.25714,-1.430529 0.2602,-0.28752 0.63097,-0.522767 0.82393,-0.522767 0.19295,0 0.42263,-0.286102 0.51039,-0.63578 0.15957,-0.635781 0.15957,-0.635781 0.92188,0.161909 1.15977,1.21358 3.05059,1.318699 3.29993,0.183454 1.08308,-4.93123 7.65673,-13.080399 12.44137,-15.423205 l 1.44358,-0.70685 5.3e-4,-1.910072 c 0.001,-5.34197 4.44319,-6.70816 6.36723,-1.958297 1.85362,4.576283 4.56254,6.001347 11.40792,6.001347 3.35003,0 3.65201,-0.125775 2.19101,-0.912571 -2.14565,-1.155515 -4.04535,-3.991991 -4.22967,-6.315419 l -0.10875,-1.37097 0.23442,1.26167 c 0.95641,5.1473 6.17212,8.401426 11.21313,6.995957 0.55425,-0.15453 0.69875,-0.126498 0.55413,0.1075 -0.29144,0.471569 6.50418,0.120213 8.31237,-0.429776 2.40472,-0.731435 4.53446,-3.199693 5.32449,-6.170821 l 0.3047,-1.14589 1.6122,1.097726 c 2.14076,1.457608 -2.13904,8.062565 -5.71201,10.156464 -2.89399,1.695992 -3.03633,2.430637 -14.52866,2.494923 -10.5036,0.05876 -12.0404,-0.275327 -13.28554,-0.888617 -2.74063,-1.349877 -3.28951,-4.772625 -3.5621,-8.9468 -0.23561,-3.607866 -0.72385,-4.400046 -2.71184,-4.400046 -5.69685,0 0.46701,10.584847 4.64979,17.728422 l 1.20383,1.019166 -1.06611,1.097877 c 0,0 -0.6986,1.65341 -0.6986,1.842402 0,0.506447 -3.52473,1.947883 -5.60367,2.240179 -2.04602,0.287668 -6.05676,0.356331 -12.87398,0.51215 z m 118.50573,-9.832562 -1.21735,-1.855524 6.78438,-6.535809 2.21382,1.182957 2.36144,3.324514 -3.14409,3.157777 c -1.52184,1.528464 -3.44336,3.370386 -3.57814,3.370386 -0.13478,0 -1.89469,-1.085993 -3.42006,-2.644301 z m -65.20015,-8.791988 c 0.46294,-0.507942 1.14612,-1.459312 1.51816,-2.114156 0.37204,-0.654844 0.67787,-1.065107 0.67963,-0.911696 0.005,0.46749 -1.46241,2.590702 -2.27464,3.290435 -0.71627,0.617066 -0.71139,0.600252 0.0769,-0.264583 z m 76.46952,-4.383954 -1.97405,-2.113266 0.85177,1.864806 8.3732,-7.807556 1.71675,4.85107 -4.73659,7.095316 z m -42.15387,-6.577056 c -2.2726,-0.98909 -2.23577,-4.2144 0.0606,-5.30408 2.13847,-1.01477 4.33726,0.35688 4.33726,2.70567 0,2.2579 -2.19728,3.55614 -4.39782,2.59841 z"
         style="display:inline;fill:#f0142c;stroke-width:0.264583" />
      <path
         inkscape:label="darkblue"
         sodipodi:nodetypes="sssssscssssssccssssssssssssscssscssssscsssssssssssssssssssssssscssssssccccccc"
         id="path893"
         d="m -248.63275,33.853045 c 0,-0.332124 9.63423,-5.202452 10.29122,-5.202452 0.16551,0 1.57886,-0.64023 3.14079,-1.422736 1.56193,-0.782505 4.03039,-1.928809 5.48547,-2.547342 1.45509,-0.618532 3.53868,-1.580239 4.63021,-2.137132 1.09153,-0.556889 3.8896,-1.881134 6.21793,-2.942764 l 4.23334,-1.930233 15.87499,-0.06554 c 9.12785,-0.03768 16.03318,0.03607 16.24717,0.173519 0.30714,0.197279 0.32045,0.509273 0.0762,1.785326 -0.1628,0.85045 -0.36526,1.991797 -0.44991,2.536328 -0.19585,1.259911 0.22605,1.192175 -8.59738,1.380312 -9.86378,0.21032 -9.3735,0.112125 -9.47171,1.897012 -0.0606,1.101834 0.0444,1.6089 0.45153,2.180728 0.91004,1.27803 0.55024,1.357061 -6.18014,1.357476 -16.95425,0.0011 -26.3362,0.315029 -27.22444,0.911114 -1.30629,0.876634 -2.00541,2.348267 -1.4219,2.993046 1.21523,1.342813 1.00998,1.387131 -6.42418,1.387131 -5.56616,0 -6.87916,-0.06753 -6.87916,-0.353798 z m 13.22916,-0.195466 c 0,-0.156573 -0.51752,-0.960245 -1.15006,-1.785938 -0.63253,-0.82569 -1.29156,-1.769147 -1.46451,-2.096569 -0.17295,-0.327421 -0.4832,-0.595312 -0.68944,-0.595312 -0.52726,0 -9.1314,4.284506 -9.1314,4.547058 0,0.118493 2.79797,0.215442 6.21771,0.215442 4.26137,0 6.2177,-0.08957 6.2177,-0.284681 z m 41.77852,-10.799312 10.16082,-0.160798 0.44062,-2.209552 c 0.31008,-1.554903 0.35441,-2.242637 0.14962,-2.321223 -0.16006,-0.06142 -7.43102,-0.07915 -16.15769,-0.03941 l -15.86668,0.07227 -4.61623,2.140897 c -2.53893,1.177497 -4.66222,2.278825 -4.71841,2.447396 -0.11251,0.337555 11.97097,0.365355 30.60795,0.07042 z m -16.53594,-12.03712 c -0.16094,-0.419413 0.72227,-3.4036637 1.40934,-4.7619842 l 0.38611,-0.7633202 20.06732,0.1225417 c 21.97269,0.1341782 21.30553,0.082079 20.42674,1.5951861 -0.71884,1.2377022 -2.85107,3.0203536 -4.23206,3.5382116 -1.80952,0.678551 -37.80267,0.933305 -38.05745,0.269365 z m 32.80009,-1.0546983 c 1.2823,-0.7514775 1.90958,-1.8878628 1.63843,-2.9681962 -0.17467,-0.6959626 -0.17467,-0.6959626 -4.46174,-0.6234642 -2.74162,0.046366 -4.66858,-0.040468 -5.3454,-0.240874 -1.41008,-0.4175283 -22.50237,-0.1123182 -22.84802,0.3306128 -0.29443,0.3772878 -1.36135,3.5827333 -1.36135,4.0900079 0,0.809406 30.95276,0.247209 32.37808,-0.5880863 z m -102.9131,-15.6397079 c -13.02454,-2.8338964 -13.59444,-21.2591088 -0.76094,-24.6018088 3.55355,-0.925584 7.79596,-0.204902 7.79596,1.324345 0,1.098029 -3.43532,4.202909 -5.00431,4.522954 -3.27379,0.667795 -5.84361,3.079586 -5.84361,5.48427 0,0.902689 -0.008,0.901864 6.74688,0.725165 6.91644,-0.18093 6.68194,-0.08277 5.81212,-2.432863 -0.78853,-2.130446 -0.7985,-2.093809 1.09086,-4.010183 2.02835,-2.057352 1.96766,-2.036032 2.84113,-0.997977 7.27294,8.643403 -1.4693,22.424921 -12.67809,19.9860978 z m 5.99481,-0.5629407 c 8.17631,-2.4259089 11.4436,-11.4999311 6.77728,-18.8220551 -0.91391,-1.434055 -0.83611,-1.454174 -2.78224,0.719489 l -1.65095,1.843969 0.57019,1.117666 c 2.75945,5.408964 -3.91817,11.5824997 -9.44708,8.733932 -5.9515,-3.066293 -4.26032,-10.964417 2.61666,-12.22031 2.70665,-0.494294 5.53973,-4.348919 3.70818,-5.045267 -4.80027,-1.825062 -11.71865,1.159621 -14.20416,6.127866 -4.87367,9.741891 4.05922,20.6164113 14.41212,17.5447101 z m 121.22767,-72.0686701 -21.32339,20.292706 -20.15053,20.14449 -7.01146,0.153387 -3.34834,1.696889 47.51803,-47.602806 z"
         style="display:inline;fill:#0c67b0;stroke-width:0.264583" />
      <path
         inkscape:label="outline"
         sodipodi:nodetypes="csscsssscssscsscccssssssssssssssssssssscsscssccsscsssscsssscssscscsssccsssssscsssscssssssssssssscssscsssscssssccccccssssssccsssssscsscssssscssscsscssssscssssssccssssscscccccccccssssccccssssscsssssccsssssccsssssssssssssssscssscccsscccssscscssssssssssssssscssssssssssssssssssssssssssssssss"
         id="path901"
         d="m -289.26787,41.624315 c -2.48766,-1.010415 -2.82326,-5.067266 -0.55313,-6.686523 0.83466,-0.595353 0.9049,-0.599388 12.72541,-0.730949 l 11.88612,-0.132292 0.63163,-2.116666 c 0.3474,-1.164167 1.62576,-5.271823 2.8408,-9.128125 1.21504,-3.856302 3.41882,-10.880989 4.89729,-15.6104156 1.47846,-4.7294268 3.12619,-9.8954876 3.66162,-11.4801353 l 0.9735,-2.8811774 3.33706,-2.410489 c 1.83538,-1.3257687 4.72436,-3.4068967 6.41995,-4.6247257 1.6956,-1.21783 3.14774,-2.319158 3.227,-2.447396 0.0816,-0.131982 -2.70433,-0.238159 -6.41995,-0.244681 -3.61023,-0.0064 -7.09646,-0.114239 -7.74718,-0.239782 -2.75587,-0.531682 -3.64225,-3.584535 -1.62613,-5.600657 l 1.02721,-1.027205 11.34206,-0.01064 11.34207,-0.01064 2.77812,-2.399823 c 1.52797,-1.319906 2.81796,-2.572205 2.86664,-2.78289 0.0766,-0.331348 -1.74517,-0.372057 -13.49375,-0.301527 -16.40952,0.09851 -18.79424,-0.317556 -25.85194,-4.510461 -34.76556,-20.653826 -26.59964,-74.358405 13.30294,-87.488985 9.47059,-3.11645 28.82345,-3.42994 36.93444,-0.59828 17.30357,6.04091 23.2251,25.084484 11.40357,36.673744 -5.06915,4.96955 -7.73815,5.729425 -20.13482,5.732468 -11.94171,0.0029 -13.85706,-0.582748 -19.45037,-5.947545 -5.15147,-4.941001 -6.621,-15.878347 -2.1334,-15.878347 1.91217,0 2.58963,1.12847 2.79342,4.653119 0.22528,3.896246 1.92781,7.058573 4.58133,8.509489 1.00603,0.550087 18.49871,0.835433 21.9442,0.35796 6.62861,-0.918583 11.08543,-6.852107 10.27953,-13.685488 -0.79514,-6.74214 -4.88319,-11.11593 -12.62683,-13.50942 -3.07927,-0.95178 -22.13009,-1.14835 -26.28996,-0.27127 -11.22073,2.36581 -21.6455,9.43464 -27.6776,18.767626 -1.02985,1.593395 -3.54323,6.333315 -3.54323,6.682078 0,0.07567 0.78962,0.137578 1.75471,0.137578 2.89683,0 4.07806,1.078505 3.71047,3.387802 -0.2833,1.77977 -1.07008,2.168448 -4.38943,2.168448 h -2.8635 l -0.40796,1.653646 c -0.22438,0.909505 -0.49085,2.457317 -0.59216,3.439583 l -0.18419,1.785937 14.25217,-0.0021 c 17.24077,-0.0026 19.50968,-0.210659 22.71885,-2.083054 l 0.79375,-0.463114 0.002,2.795521 c 0.003,3.521782 0.8135,5.505556 3.24347,7.935532 3.40845,3.408444 3.71591,3.460416 20.42406,3.452444 l 13.6366,-0.0065 2.38125,-2.288936 c 2.74622,-2.639761 9.6046,-9.382847 31.62324,-31.091639 19.3497,-19.077422 19.46551,-19.173522 24.36102,-20.216312 13.84818,-2.94978 24.40869,11.51888 17.16889,23.522625 l -1.08149,1.793139 0.94725,1.106654 c 3.64903,4.263067 3.96179,9.909879 0.81166,14.654313 -1.79202,2.698985 -23.06771,23.703765 -24.88265,24.565823 -4.93984,2.346309 -9.33699,1.863703 -12.90617,-1.416508 l -0.73534,-0.675801 -8.71324,8.710239 c -4.79229,4.790633 -8.68805,8.73544 -8.65725,8.766238 0.0308,0.0308 4.34219,0.11303 9.58087,0.18274 7.35191,0.09783 10.02147,0.225612 11.70162,0.56013 31.74988,6.321364 38.70758,49.825172 11.04733,69.074628 l -3.4217,2.381249 13.75194,0.132292 c 15.53905,0.149484 14.94387,0.06543 16.00652,2.260568 0.87596,1.809501 0.44641,3.542152 -1.16272,4.689954 -0.86268,0.615355 -162.06918,1.07556 -163.5676,0.46695 z m 54.65803,-7.646374 c 0,-0.125896 -0.24486,-0.540191 -0.54413,-0.920657 -0.67782,-0.861711 -0.18562,-2.186683 1.17207,-3.15513 0.82727,-0.590102 0.82727,-0.590102 21.46477,-0.657963 23.694,-0.07791 21.80213,-0.276505 22.9918,2.413545 0.90624,2.049166 1.58716,2.251234 7.89857,2.343941 2.72867,0.04008 4.95847,0.01333 4.95512,-0.05942 -0.003,-0.07276 -0.54434,-0.489479 -1.20221,-0.926042 -3.82261,-2.536685 -5.79255,-7.92839 -4.73675,-12.964485 0.21354,-1.01859 0.38826,-2.000855 0.38826,-2.182812 0,-0.261067 -3.37313,-0.330827 -15.99646,-0.330827 h -15.99647 l -4.70718,2.138167 c -2.58895,1.175993 -6.1072,2.783337 -7.81833,3.571874 -1.71114,0.788541 -3.18714,1.433709 -3.28,1.433709 -0.39185,0 -19.14114,9.124954 -19.14114,9.315661 0,0.115136 3.27422,0.209338 7.27604,0.209338 4.00183,0 7.27604,-0.103005 7.27604,-0.228902 z m 69.6253,-4.674279 c 3.63907,-0.765501 8.55353,-3.278997 11.86637,-6.069034 1.36876,-1.152757 1.39044,-1.301411 0.20365,-1.396531 -3.64509,-0.292158 -8.42433,-3.301743 -10.94547,-6.892592 -0.68467,-0.975169 -1.33627,-1.876591 -1.44799,-2.00316 -0.11173,-0.126569 -0.76321,0.171088 -1.44773,0.661458 l -1.24458,0.891583 0.18196,3.605485 c 0.18197,3.605484 0.18197,3.605484 -0.53942,4.172936 -2.21421,1.741691 -4.08246,0.442238 -4.33606,-3.015922 l -0.13582,-1.852083 -1.67759,0.0036 c -1.95045,0.0042 -2.20534,0.22469 -2.85956,2.474108 -1.96742,6.764647 3.87529,11.209668 12.38224,9.420174 z m -83.86689,-4.787326 c 2.95793,-1.400715 7.46165,-3.530936 10.00826,-4.733821 15.03126,-7.099972 19.74561,-9.415963 20.02913,-9.8395711 0.17471,-0.2610537 1.08891,-2.6177662 2.03155,-5.237141 4.9227,-13.6790715 5.75528,-15.9282439 6.30891,-17.0432619 l 0.60229,-1.212987 6.41614,-0.07085 6.41615,-0.07085 0.0141,-2.442692 c 0.008,-1.34348 0.01,-5.062066 0.004,-8.263524 l -0.0101,-5.820833 -4.83259,-0.07957 c -11.47703,-0.188957 -11.75976,-0.03578 -27.05758,14.659575 -3.98803,3.830968 -6.06614,5.57866 -10.05417,8.4555511 -6.7036,4.8358555 -6.00282,3.9847703 -7.71127,9.3652494 -0.81048,2.5524697 -2.88124,8.9271045 -4.60169,14.1658545 -3.69292,11.244926 -3.5347,10.715624 -3.20324,10.715624 0.1442,0 2.6823,-1.14604 5.64023,-2.546757 z m 15.6968,-17.183906 c -2.70641,-1.4075806 -3.64204,-3.9742479 -2.41181,-6.61624197 2.41164,-5.17916293 9.91038,-3.15733623 9.3644,2.52484717 -0.32175,3.3485533 -4.10276,5.5735641 -6.95259,4.0913948 z m 86.05962,8.816601 c 1.32288,-1.408435 3.70281,-6.112149 4.14999,-8.2020825 l 0.15568,-0.7276041 h -6.03038 c -5.96549,0 -8.65828,-0.3410161 -11.49004,-1.4550998 -0.49559,-0.194982 -1.00628,1.1545967 -1.00902,2.6665104 -0.003,1.777915 3.4215,5.504865 6.40863,6.974194 2.92971,1.441082 6.81319,1.81083 7.81514,0.744082 z m -26.41266,-5.222377 c 2.91678,-0.553154 7.26552,-4.2190111 6.23184,-5.2532514 -0.0956,-0.095618 -9.42098,-0.1738498 -20.72315,-0.1738498 h -20.5494 l -0.84964,2.2489583 c -1.46499,3.8777459 -3.60777,3.4395829 16.82082,3.4395829 10.54566,0 18.24777,-0.105595 19.06953,-0.26144 z m 31.35856,-13.2323091 c -0.0286,-9.8663279 -4.36248,-18.4221799 -11.84574,-23.3859009 -5.05955,-3.356041 -8.98818,-4.649805 -14.13843,-4.656021 l -3.24114,-0.0039 v 8.186467 c 0,9.027879 -0.12177,8.446346 1.84241,8.798533 3.38589,0.607108 2.9173,0.738635 4.77981,-1.34163 2.34802,-2.62254 4.17555,-3.047032 5.42686,-1.260536 0.91501,1.306369 0.53785,2.397709 -1.60309,4.638606 l -1.98943,2.0823076 0.71351,1.0897923 c 0.83984,1.2827449 0.62963,1.2541408 3.74295,0.5092911 2.76515,-0.6615509 3.06931,-0.5929471 3.83453,0.8648991 1.2627,2.4055862 -0.22754,3.9761078 -4.37828,4.6141479 -0.82717,0.1271481 -0.99219,0.2576697 -0.99219,0.7847594 0,2.5787455 1.66634,3.0060052 11.50938,2.951083 l 6.35,-0.03543 z m -24.19823,0.5497353 c 0,-1.0077502 -1.4334,-2.8840905 -2.79043,-3.6527209 -1.65541,-0.9376303 -35.04394,-0.9431469 -35.52691,-0.00587 -0.31903,0.6191197 -1.63474,4.0843992 -1.63474,4.3055247 0,0.069437 8.98922,0.12625118 19.97604,0.12625118 h 19.97604 z m -10.58333,-20.2611922 v -8.334375 h -7.14375 -7.14375 v 8.334375 8.334374 h 7.14375 7.14375 z m -67.82019,-16.548835 c 2.04168,-0.992921 4.0689,-3.140758 4.74871,-5.031261 0.88148,-2.451301 2.91363,-3.370461 4.47755,-2.025235 1.53471,1.320105 0.95191,4.428562 -1.35909,7.248824 l -0.93657,1.142966 h 2.78823 2.78824 l 1.89591,-1.885291 3.75814,-3.737105 c 3.10973,-3.092318 7.69613,-7.637467 10.19199,-10.100333 2.49587,-2.462864 4.48084,-4.535043 4.41104,-4.604837 -0.0698,-0.0698 -4.86113,-0.173451 -10.64741,-0.230344 -12.26832,-0.120624 -13.22397,-0.271931 -16.52675,-2.616626 l -1.24375,-0.882954 -0.69596,2.305306 c -2.88698,9.56297 -9.75327,14.692169 -20.16602,15.064255 -2.2192,0.0793 -4.03088,0.217541 -4.02595,0.3072 0.0126,0.229455 3.85426,2.761676 5.26501,3.470407 5.74194,2.884636 11.38705,3.466645 15.27668,1.575028 z m 70.37593,-19.646217 20.15054,-20.161196 -3.48179,-3.588755 c -6.32955,-6.524011 -8.9247,-8.792347 -9.43891,-8.250234 -0.77052,0.812337 -40.11153,39.647757 -46.43037,45.83367 -3.34698,3.276571 -6.12358,6.042118 -6.17022,6.145662 -0.13948,0.309647 4.26741,0.393086 15.03376,0.284647 l 10.18646,-0.102598 z m -82.71114,8.145761 c 6.83789,-1.771877 10.93922,-7.046512 11.1581,-14.350197 0.0888,-2.961897 0.2004,-2.949279 -2.09707,-0.237067 -4.64669,5.485529 -8.57066,6.786046 -20.4446,6.775945 -7.85487,-0.0067 -7.41552,-0.09007 -6.59919,1.252423 3.59123,5.905939 10.61554,8.467934 17.98276,6.558896 z m 101.18977,-10.159502 c 1.49768,-0.69914 23.0135,-22.352999 23.26439,-23.413652 0.37044,-1.566029 -1.26881,-3.473503 -2.43084,-2.828594 -1.66591,0.924549 -25.26473,25.159495 -24.91244,25.583974 0.94157,1.134525 2.51479,1.388422 4.07889,0.658272 z m -103.55548,-3.733143 c 3.17964,-0.603007 6.168,-2.626307 8.47473,-5.73791 0.56176,-0.757772 1.02138,-1.442382 1.02138,-1.521354 0,-0.421783 -28.32921,-0.137883 -28.49169,0.285527 -0.191,0.497745 0.52454,5.441794 0.94307,6.516195 l 0.28344,0.727605 h 8.17252 c 4.49489,0 8.81333,-0.121529 9.59655,-0.270063 z m 115.45956,-25.117712 1.05616,-1.091608 -6.07342,-5.944724 -6.07343,-5.944728 -1.46502,1.43362 c -0.80577,0.788487 -2.17941,2.097354 -3.05253,2.908593 l -1.5875,1.474981 6.01108,5.992481 6.01109,5.992482 2.0587,-1.864744 c 1.13229,-1.02561 2.53398,-2.355969 3.11487,-2.956353 z m 8.01218,-9.01133 c 4.80524,-5.93872 1.53248,-13.77505 -5.74204,-13.74878 -2.55781,0.009 -7.69193,2.53517 -7.69193,3.78435 0,0.38133 11.41898,11.523429 11.8281,11.541288 0.17529,0.0076 0.89793,-0.701934 1.60587,-1.576858 z M -284.37603,16.657886 c -3.67829,-1.941912 -3.91386,-7.3455367 -0.41571,-9.5359453 5.58038,-3.4942249 11.43543,3.9729543 6.71007,8.5576273 -1.73163,1.680075 -4.22968,2.06834 -6.29436,0.978318 z m 16.19324,-11.119921 c -1.51172,-0.8636158 -1.80029,-2.9381607 -0.57865,-4.1598054 2.3328,-2.33279408 5.74936,1.0162672 3.52609,3.4564186 -0.84719,0.9298252 -2.04903,1.2166361 -2.94744,0.7033868 z m -12.0971,-11.6630603 c -12.74896,-2.8832649 -13.27992,-20.8230827 -0.71317,-24.0963037 3.18202,-0.828813 7.35718,-0.279893 7.35718,0.967269 0,1.304565 -2.74067,3.82988 -4.56511,4.206393 -8.61653,1.778203 -8.23295,12.836601 0.44449,12.814405 5.3292,-0.01363 8.40537,-4.595947 6.32764,-9.425757 l -0.5711,-1.327576 1.74982,-1.749822 c 2.0516,-2.051597 2.18395,-2.02144 3.58053,0.815819 4.65654,9.460116 -3.4721,20.0883909 -13.61028,17.7955727 z m 144.62422,-24.9464637 c -3.50877,-1.31845 -3.93522,-6.768075 -0.67895,-8.676375 3.57876,-2.097296 7.80684,0.817835 7.18646,4.954842 -0.41658,2.777926 -3.82749,4.728572 -6.50751,3.721533 z m -151.65499,-7.713072 c -1.73542,-1.550595 -0.69709,-4.122538 1.66432,-4.122538 2.19524,0 3.16543,2.523712 1.57978,4.109367 -1.02212,1.022115 -2.10995,1.026531 -3.2441,0.01318 z m 61.04909,-54.447067 c -6.37526,-1.956321 -8.26629,-9.782432 -3.53165,-14.615862 5.07054,-5.17633 13.6185,-2.14897 14.49207,5.13253 0.74381,6.200039 -5.12164,11.275027 -10.96042,9.483332 z m 3.65435,-6.011682 c 2.64252,-1.10412 2.7348,-4.52566 0.15799,-5.85818 -2.09614,-1.08396 -4.75227,0.49902 -4.75227,2.83223 0,2.566858 2.20975,4.022273 4.59428,3.02595 z m 38.48273,-1.3474 c -6.55309,-1.80331 -8.4608,-9.9499 -3.39627,-14.50334 5.41393,-4.86759 13.76771,-1.12907 13.76771,6.16139 0,5.45424 -5.31889,9.732329 -10.37144,8.34195 z m 3.78822,-5.5814 c 2.67481,-1.3832 1.39512,-5.67097 -1.69251,-5.67097 -2.24859,0 -3.73431,2.01322 -3.04462,4.1256 0.56381,1.72687 2.90759,2.49146 4.73713,1.54537 z m 12.7805,-9.19104 c -1.54767,-1.33126 -0.62011,-4.15285 1.3652,-4.15285 1.23405,0 1.6617,0.22587 2.12539,1.12254 1.24611,2.4097 -1.4704,4.768 -3.49059,3.03031 z"
         style="display:inline;fill:#000000;stroke-width:0.264583" />
    </g>
  </g>
</svg>
